<svg width="25" height="24" viewBox="0 0 25 24" fill="none" xmlns="http://www.w3.org/2000/svg">
<path fill-rule="evenodd" clip-rule="evenodd" d="M3.49999 12.0119C3.49999 7.27083 7.28899 2.99841 12.518 2.99841C17.63 2.99841 21.5 7.18971 21.5 11.9849C21.5 17.5463 16.964 20.9984 12.5 20.9984C11.024 20.9984 9.386 20.6018 8.07199 19.8267C7.61299 19.5473 7.22599 19.3399 6.73099 19.5022L4.91299 20.043C4.45399 20.1872 4.03999 19.8267 4.17499 19.34L4.77799 17.3209C4.87699 17.0415 4.85899 16.7441 4.71499 16.5097C3.94099 15.0856 3.49999 13.5262 3.49999 12.0119ZM15.479 12.0194C15.479 12.6504 15.992 13.1731 16.631 13.1731C17.27 13.1731 17.783 12.6504 17.783 12.0194C17.783 11.3794 17.27 10.8657 16.631 10.8657C15.992 10.8657 15.479 11.3794 15.479 12.0194ZM11.33 12.0105C11.33 12.6505 11.843 13.1642 12.482 13.1733C13.121 13.1733 13.634 12.6505 13.634 12.0195C13.634 11.3796 13.121 10.8658 12.482 10.8658C11.852 10.8568 11.33 11.3796 11.33 12.0105ZM8.33298 13.1739C7.70298 13.1739 7.18098 12.6511 7.18098 12.0201C7.18098 11.3802 7.69398 10.8664 8.33298 10.8664C8.97199 10.8664 9.48499 11.3802 9.48499 12.0201C9.48499 12.6511 8.97199 13.1648 8.33298 13.1739Z" fill="#979797"/>
</svg>
