<svg width="21.907471" height="24.000000" viewBox="0 0 21.9075 24" fill="none" xmlns="http://www.w3.org/2000/svg" xmlns:xlink="http://www.w3.org/1999/xlink">
	<desc>
			Created with Pixso.
	</desc>
	<defs/>
	<mask id="mask_1_4149" fill="white">
		<path id="Union" d="M11.8264 2C8.4646 2 5.7395 4.72534 5.7395 8.08691L5.7395 10.1794C5.7395 11.2798 5.03027 12.2422 4.4668 13.1873C4.17041 13.6841 4.00024 14.2646 4.00024 14.8853C4.00024 16.488 5.14575 17.8633 6.73364 18.0835C8.31006 18.302 10.28 18.522 11.8264 18.522C13.3726 18.522 15.3425 18.302 16.9192 18.0835C18.5068 17.8633 19.6523 16.488 19.6523 14.8853C19.6523 14.2646 19.4822 13.6841 19.186 13.1873C18.6223 12.2422 17.9133 11.2798 17.9133 10.1794L17.9133 8.08691C17.9133 4.72534 15.188 2 11.8264 2Z" clip-rule="evenodd" fill="" fill-opacity="1.000000" fill-rule="evenodd"/>
	</mask>
	<path id="Union" d="M11.8264 2C8.4646 2 5.7395 4.72534 5.7395 8.08691L5.7395 10.1794C5.7395 11.2798 5.03027 12.2422 4.4668 13.1873C4.17041 13.6841 4.00024 14.2646 4.00024 14.8853C4.00024 16.488 5.14575 17.8633 6.73364 18.0835C8.31006 18.302 10.28 18.522 11.8264 18.522C13.3726 18.522 15.3425 18.302 16.9192 18.0835C18.5068 17.8633 19.6523 16.488 19.6523 14.8853C19.6523 14.2646 19.4822 13.6841 19.186 13.1873C18.6223 12.2422 17.9133 11.2798 17.9133 10.1794L17.9133 8.08691C17.9133 4.72534 15.188 2 11.8264 2Z" clip-rule="evenodd" fill="#252525" fill-opacity="1.000000" fill-rule="evenodd" mask="url(#mask_1_4149)"/>
	<path id="Union" d="M11.8264 2.75Q10.74 2.75 9.74927 3.16919Q8.7915 3.57422 8.05249 4.31323Q7.31348 5.05225 6.90845 6.00977Q6.4895 7.00073 6.4895 8.08691L6.4895 10.1794Q6.4895 10.9661 6.10181 11.8311Q5.9585 12.1511 5.74072 12.5308Q5.61548 12.7493 5.35693 13.1682Q5.1897 13.4392 5.11084 13.5713Q4.75024 14.176 4.75024 14.8853Q4.75024 15.3445 4.90747 15.7703Q5.06055 16.1841 5.34351 16.5178Q5.62622 16.8511 6.00269 17.0618Q6.39087 17.2788 6.83643 17.3406Q9.94751 17.772 11.8264 17.772Q13.7051 17.772 16.8162 17.3406Q17.2617 17.2788 17.6499 17.0618Q18.0264 16.8511 18.3091 16.5178Q18.5923 16.1841 18.7451 15.7703Q18.9023 15.3445 18.9023 14.8853Q18.9023 14.176 18.5417 13.5713Q18.4629 13.439 18.2959 13.1682Q18.0371 12.7493 17.9119 12.5308Q17.6941 12.1511 17.5508 11.8311Q17.1633 10.9663 17.1633 10.1794L17.1633 8.08691Q17.1633 7.00073 16.7441 6.00977Q16.3391 5.05225 15.6001 4.31323Q14.8611 3.57422 13.9036 3.16919Q12.9126 2.75 11.8264 2.75ZM11.8264 1.25Q13.2168 1.25 14.4878 1.7876Q15.7148 2.30664 16.6609 3.25244Q17.6067 4.19849 18.1257 5.42554Q18.6633 6.69653 18.6633 8.08691L18.6633 10.1794Q18.6633 10.6455 18.9197 11.2178Q19.0325 11.4697 19.2131 11.7847Q19.3264 11.9822 19.5723 12.3806Q19.7454 12.6611 19.8301 12.803Q20.4023 13.7627 20.4023 14.8853Q20.4023 15.6128 20.1521 16.29Q19.9075 16.9524 19.4531 17.488Q18.9951 18.0281 18.3821 18.3708Q17.7476 18.7258 17.0222 18.8264Q13.8086 19.272 11.8264 19.272Q9.84399 19.272 6.63062 18.8264Q5.90527 18.7258 5.27051 18.3708Q4.65747 18.0281 4.19946 17.488Q3.74536 16.9524 3.50049 16.29Q3.25024 15.6128 3.25024 14.8853Q3.25024 13.7627 3.82251 12.803Q3.90723 12.6611 4.08032 12.3806Q4.32617 11.9822 4.43945 11.7847Q4.62012 11.4697 4.73291 11.2178Q4.9895 10.6455 4.9895 10.1794L4.9895 8.08691Q4.9895 6.69653 5.52686 5.42554Q6.0459 4.19849 6.99194 3.25244Q7.93774 2.30664 9.16479 1.7876Q10.4358 1.25 11.8264 1.25Z" fill="#252525" fill-opacity="1.000000" fill-rule="nonzero"/>
	<path id="Ellipse 33" d="M14.59 21.25L14.62 21.24C14.85 20.89 14.76 20.44 14.41 20.2C14.06 19.97 13.6 20.06 13.37 20.41L13.38 20.44L14.59 21.25ZM10.27 20.44L10.27 20.41C10.04 20.06 9.58 19.97 9.23 20.2C8.88 20.44 8.79 20.89 9.02 21.24L9.05 21.25L10.27 20.44Z" fill="#252525" fill-opacity="1.000000" fill-rule="nonzero"/>
	<path id="Ellipse 33" d="M9.65 20.83C10.11 21.53 10.91 22 11.82 22C12.73 22 13.53 21.53 14 20.83" stroke="#252525" stroke-opacity="1.000000" stroke-width="1.500000" stroke-linecap="round"/>
</svg>
