<svg width="16.772949" height="26.815186" viewBox="0 0 16.7729 26.8152" fill="none" xmlns="http://www.w3.org/2000/svg" xmlns:xlink="http://www.w3.org/1999/xlink">
	<desc>
			Created with Pixso.
	</desc>
	<defs/>
	<path id="Vector" d="M16.77 0.79C16.77 0.79 16.77 0.79 16.62 2.31C16.47 3.84 16.47 3.84 16.47 3.84L16.42 3.83C16.39 3.83 16.34 3.82 16.27 3.81C16.15 3.8 15.96 3.78 15.72 3.75C15.25 3.7 14.58 3.63 13.78 3.55C12.2 3.4 10.14 3.22 8.23 3.12C7.21 3.07 6.27 3.05 5.48 3.06C5.75 3.54 5.95 4.06 6.11 4.56C6.49 5.77 6.71 7.24 6.84 8.78C6.85 8.96 6.86 9.14 6.88 9.33C7.02 9.27 7.16 9.22 7.31 9.17C9.36 8.46 11.47 8.22 13.04 8.15C13.83 8.11 14.49 8.12 14.96 8.13C15.2 8.14 15.39 8.15 15.52 8.16C15.59 8.17 15.64 8.17 15.67 8.17C15.69 8.17 15.71 8.18 15.72 8.18L15.73 8.18L15.74 8.18C15.74 8.18 15.74 8.18 15.62 9.7C15.5 11.23 15.5 11.23 15.5 11.23L15.5 11.23L15.47 11.23C15.44 11.23 15.4 11.22 15.35 11.22C15.24 11.21 15.08 11.2 14.87 11.2C14.46 11.18 13.86 11.18 13.15 11.21C11.72 11.27 9.88 11.49 8.15 12.1C7.73 12.24 7.34 12.4 6.95 12.58C6.93 14.63 6.78 16.74 6.55 18.63C6.37 20.2 6.12 21.65 5.83 22.86C5.55 23.99 5.19 25.12 4.69 25.84C4.44 26.18 3.95 26.75 3.17 26.81C2.32 26.86 1.76 26.28 1.47 25.86C1.17 25.43 0.95 24.87 0.77 24.28C0.59 23.67 0.42 22.92 0.26 22.03C-0.4 18.3 0.21 15.39 1.68 13.22C2.37 12.21 3.22 11.4 4.14 10.76C4.12 10.17 4.09 9.59 4.05 9.04C3.94 7.63 3.74 6.43 3.46 5.55C3.17 4.61 2.88 4.32 2.78 4.26C2.45 4.07 2.11 3.83 1.84 3.55C1.62 3.31 1.12 2.66 1.32 1.75C1.5 0.91 2.14 0.56 2.37 0.45C2.68 0.3 3.02 0.21 3.32 0.16C4.51 -0.05 6.44 -0.03 8.36 0.06C10.32 0.16 12.43 0.34 14.03 0.5C14.84 0.58 15.52 0.65 16 0.7C16.24 0.73 16.43 0.75 16.56 0.77C16.63 0.77 16.68 0.78 16.71 0.78L16.77 0.79ZM4.08 14.84C4.03 14.91 3.98 14.98 3.93 15.05C3.01 16.41 2.47 18.4 3.01 21.45C3.05 21.67 3.08 21.88 3.12 22.08L3.12 22.07C3.38 21.03 3.6 19.71 3.78 18.23C3.91 17.15 4.01 16 4.08 14.84ZM2.45 24C2.45 24 2.45 23.99 2.46 23.98C2.45 24 2.45 24 2.45 24Z" fill="#252525" fill-opacity="1.000000" fill-rule="evenodd"/>
</svg>
