<svg width="44.000000" height="44.000000" viewBox="0 0 44 44" fill="none" xmlns="http://www.w3.org/2000/svg" xmlns:xlink="http://www.w3.org/1999/xlink">
	<desc>
			Created with Pixso.
	</desc>
	<defs/>
	<circle id="Ellipse 63" cx="22.000000" cy="22.000000" r="15.000000" fill="#C7E8FD" fill-opacity="1.000000"/>
	<circle id="Ellipse 66" cx="22.000000" cy="22.000000" r="11.000000" fill="#C7E8FD" fill-opacity="1.000000"/>
	<circle id="Ellipse 66" cx="22.000000" cy="22.000000" r="10.500000" stroke="#FFFFFF" stroke-opacity="1.000000" stroke-width="1.000000"/>
	<path id="Ellipse 64" d="M43.79 19C43.4 16.12 42.45 13.41 41.05 11C39.05 7.53 36.24 4.81 33 2.94C30.45 1.47 27.73 0.57 24.98 0.2C23.34 -0.03 22 1.34 22 2.99L22 19C22 20.65 23.34 22 25 22L41 22C42.65 22 44.02 20.65 43.79 19Z" fill="#6BB1F7" fill-opacity="1.000000" fill-rule="evenodd"/>
	<path id="Ellipse 65" d="M36.7 19.01C36.37 17.4 35.79 15.88 34.99 14.5C33.62 12.13 31.71 10.28 29.5 9.01C28.05 8.17 26.52 7.6 24.97 7.29C23.35 6.96 22 8.34 22 9.99L22 19C22 20.65 23.34 22 25 22L34 22C35.65 22 37.03 20.64 36.7 19.01Z" fill="#2B56F6" fill-opacity="1.000000" fill-rule="evenodd"/>
</svg>
