<svg width="44.000000" height="44.000000" viewBox="0 0 44 44" fill="none" xmlns="http://www.w3.org/2000/svg" xmlns:xlink="http://www.w3.org/1999/xlink">
	<desc>
			Created with Pixso.
	</desc>
	<defs/>
	<circle id="Ellipse 64" cx="22.000000" cy="22.000000" r="22.000000" fill="#6FCF97" fill-opacity="1.000000"/>
	<circle id="Ellipse 65" cx="22.000000" cy="22.000000" r="15.000000" fill="#27AE60" fill-opacity="1.000000"/>
	<rect id="Iconly/Bold/Tick Square" rx="-1.000000" width="22.000000" height="22.000000" transform="translate(11.000000 11.000000)" fill="#FFFFFF" fill-opacity="0"/>
	<path id="Tick Square" d="M17.67 11.9999L26.34 11.9999C29.73 11.9999 32 14.3799 32 17.9199L32 26.0908C32 29.6199 29.73 31.9999 26.34 31.9999L17.67 31.9999C14.28 31.9999 12 29.6199 12 26.0908L12 17.9199C12 14.3799 14.28 11.9999 17.67 11.9999ZM26.1801 20.2399L21.4301 24.9899C21.26 25.1599 21.04 25.2399 20.8101 25.2399C20.59 25.2399 20.37 25.1599 20.2 24.9899L17.8199 22.6199C17.48 22.2699 17.48 21.7198 17.8199 21.3799C18.16 21.0399 18.72 21.0399 19.0601 21.3799L20.8101 23.1299L24.9399 18.9999C25.28 18.6599 25.84 18.6599 26.1801 18.9999C26.52 19.3499 26.52 19.8999 26.1801 20.2399Z" clip-rule="evenodd" fill="#FFFFFF" fill-opacity="1.000000" fill-rule="evenodd"/>
</svg>
