<svg width="44.000000" height="44.000000" viewBox="0 0 44 44" fill="none" xmlns="http://www.w3.org/2000/svg" xmlns:xlink="http://www.w3.org/1999/xlink">
	<desc>
			Created with Pixso.
	</desc>
	<defs/>
	<circle id="Ellipse 63" cx="22.000000" cy="22.000000" r="15.000000" fill="#C7E8FD" fill-opacity="1.000000"/>
	<circle id="Ellipse 66" cx="22.000000" cy="22.000000" r="11.000000" fill="#C7E8FD" fill-opacity="1.000000"/>
	<circle id="Ellipse 66" cx="22.000000" cy="22.000000" r="10.500000" stroke="#FFFFFF" stroke-opacity="1.000000" stroke-width="1.000000"/>
	<circle id="Ellipse 64" cx="22.000000" cy="22.000000" r="22.000000" fill="#FFA2A2" fill-opacity="1.000000"/>
	<circle id="Ellipse 65" cx="22.000000" cy="22.000000" r="15.000000" fill="#EB5757" fill-opacity="1.000000"/>
	<rect id="Iconly/Bold/Close Square" rx="-0.250000" width="19.500000" height="19.500000" transform="translate(12.250000 12.250000)" fill="#FFFFFF" fill-opacity="0"/>
	<path id="Close Square" d="M19.3364 13.666L28.0063 13.666C31.3964 13.666 33.6664 16.0459 33.6664 19.5859L33.6664 27.7571C33.6664 31.2871 31.3964 33.666 28.0063 33.666L19.3364 33.666C15.9464 33.666 13.6664 31.2871 13.6664 27.7571L13.6664 19.5859C13.6664 16.0459 15.9464 13.666 19.3364 13.666ZM26.6764 25.437C27.0164 25.7771 27.0164 26.3269 26.6764 26.666C26.5063 26.8359 26.2864 26.927 26.0564 26.927C25.8364 26.927 25.6163 26.8469 25.4464 26.666L23.6664 24.897L21.8864 26.666C21.7164 26.8359 21.4963 26.927 21.2664 26.927C21.0464 26.927 20.8164 26.8359 20.6464 26.666C20.3064 26.3269 20.3064 25.7771 20.6464 25.427L22.4264 23.657L20.6464 21.876C20.3064 21.5371 20.3064 20.9771 20.6464 20.637C20.9863 20.2959 21.5364 20.2959 21.8864 20.637L23.6664 22.416L25.4364 20.637C25.7864 20.2959 26.3364 20.2959 26.6764 20.637C27.0164 20.9771 27.0164 21.5371 26.6764 21.876L24.8964 23.657L26.6764 25.437Z" clip-rule="evenodd" fill="#FFFFFF" fill-opacity="1.000000" fill-rule="evenodd"/>
</svg>
