<svg width="44.000000" height="44.000000" viewBox="0 0 44 44" fill="none" xmlns="http://www.w3.org/2000/svg" xmlns:xlink="http://www.w3.org/1999/xlink">
	<desc>
			Created with Pixso.
	</desc>
	<defs/>
	<circle id="Ellipse 63" cx="22.000000" cy="22.000000" r="15.000000" fill="#C7E8FD" fill-opacity="1.000000"/>
	<circle id="Ellipse 66" cx="22.000000" cy="22.000000" r="11.000000" fill="#C7E8FD" fill-opacity="1.000000"/>
	<circle id="Ellipse 66" cx="22.000000" cy="22.000000" r="10.500000" stroke="#FFFFFF" stroke-opacity="1.000000" stroke-width="1.000000"/>
	<path id="Ellipse 64" d="M11.78 41.48C15.92 43.66 20.53 44.39 24.95 43.79C30.72 43.01 35.67 40.05 39.07 35.86C42.74 31.34 44.32 25.8 43.93 20.41C43.52 14.61 40.88 9.49 36.9 5.82C33.42 2.61 29.17 0.73 24.79 0.17C23.14 -0.04 21.81 1.34 21.82 3L21.99 21.02C21.99 21.65 21.8 22.27 21.43 22.79L10.97 37.47C10.01 38.82 10.32 40.71 11.78 41.48Z" fill="#6BB1F7" fill-opacity="1.000000" fill-rule="evenodd"/>
	<path id="Ellipse 65" d="M15.88 35.7C18.48 36.86 21.29 37.22 24.01 36.86C27.94 36.33 31.31 34.31 33.63 31.45C36.14 28.37 37.22 24.6 36.95 20.92C36.67 16.96 34.87 13.47 32.16 10.97C30.04 9.01 27.5 7.78 24.85 7.27C23.22 6.95 21.87 8.34 21.89 10L21.99 21.02C21.99 21.65 21.8 22.27 21.43 22.79L15.03 31.77C14.07 33.11 14.37 35.02 15.88 35.7Z" fill="#2B56F6" fill-opacity="1.000000" fill-rule="evenodd"/>
</svg>
