<svg width="33.333374" height="33.333252" viewBox="0 0 33.3334 33.3333" fill="none" xmlns="http://www.w3.org/2000/svg" xmlns:xlink="http://www.w3.org/1999/xlink">
	<desc>
			Created with Pixso.
	</desc>
	<defs/>
	<path id="Close Square" d="M5.66992 0L14.3401 0C17.73 0 20 2.38 20 5.92004L20 14.0909C20 17.621 17.73 20 14.3401 20L5.66992 20C2.28003 20 0 17.621 0 14.0909L0 5.92004C0 2.38 2.28003 0 5.66992 0ZM13.01 11.771C13.3501 12.111 13.3501 12.661 13.01 13C12.8401 13.17 12.6201 13.261 12.3899 13.261C12.1699 13.261 11.95 13.181 11.78 13L10 11.231L8.21997 13C8.05005 13.17 7.83008 13.261 7.6001 13.261C7.37988 13.261 7.1499 13.17 6.97998 13C6.63989 12.661 6.63989 12.111 6.97998 11.761L8.76001 9.99097L6.97998 8.20996C6.63989 7.87097 6.63989 7.31104 6.97998 6.97095C7.32007 6.63 7.87012 6.63 8.21997 6.97095L10 8.75L11.77 6.97095C12.1201 6.63 12.6699 6.63 13.01 6.97095C13.3501 7.31104 13.3501 7.87097 13.01 8.20996L11.23 9.99097L13.01 11.771Z" clip-rule="evenodd" fill="#FFFFFF" fill-opacity="1.000000" fill-rule="evenodd"/>
</svg>
