<svg width="33.333374" height="33.333313" viewBox="0 0 33.3334 33.3333" fill="none" xmlns="http://www.w3.org/2000/svg" xmlns:xlink="http://www.w3.org/1999/xlink">
	<desc>
			Created with Pixso.
	</desc>
	<defs/>
	<path id="Tick Square" d="M5.67004 0L14.34 0C17.73 0 20 2.38 20 5.91998L20 14.091C20 17.62 17.73 20 14.34 20L5.67004 20C2.28003 20 0 17.62 0 14.091L0 5.91998C0 2.38 2.28003 0 5.67004 0ZM14.1801 8.23999L9.43005 12.99C9.26001 13.16 9.04004 13.24 8.81006 13.24C8.58997 13.24 8.37 13.16 8.19995 12.99L5.81995 10.62C5.47998 10.27 5.47998 9.71997 5.81995 9.38C6.16003 9.03998 6.71997 9.03998 7.06006 9.38L8.81006 11.13L12.9399 7C13.28 6.65997 13.84 6.65997 14.1801 7C14.52 7.34998 14.52 7.90002 14.1801 8.23999Z" clip-rule="evenodd" fill="#FFFFFF" fill-opacity="1.000000" fill-rule="evenodd"/>
</svg>
