<svg width="21.000000" height="21.000000" viewBox="0 0 21 21" fill="none" xmlns="http://www.w3.org/2000/svg" xmlns:xlink="http://www.w3.org/1999/xlink">
	<desc>
			Created with Pixso.
	</desc>
	<defs/>
	<path id="Rectangle 74" d="M4.87 18.81C3.15 18.81 1.75 17.41 1.75 15.68C1.75 15.15 1.88 14.63 2.14 14.16L7.55 4.42C8.03 3.56 8.87 2.95 9.83 2.75C10.27 2.66 10.72 2.66 11.16 2.75C12.12 2.95 12.96 3.56 13.44 4.42L18.85 14.16C19.11 14.63 19.25 15.15 19.25 15.68C19.25 17.41 17.84 18.81 16.12 18.81L4.87 18.81Z" stroke="#252525" stroke-opacity="1.000000" stroke-width="1.750000"/>
	<path id="Line" d="M10.5 11.37L10.5 7.87" stroke="#252525" stroke-opacity="1.000000" stroke-width="1.750000" stroke-linejoin="round" stroke-linecap="square"/>
	<path id="Line" d="M10.5 14.43L10.5 14" stroke="#252525" stroke-opacity="1.000000" stroke-width="1.750000" stroke-linejoin="round" stroke-linecap="square"/>
</svg>
