<svg width="22.000000" height="22.000000" viewBox="0 0 22 22" fill="none" xmlns="http://www.w3.org/2000/svg" xmlns:xlink="http://www.w3.org/1999/xlink">
	<desc>
			Created with Pixso.
	</desc>
	<defs/>
	<rect id="Iconly/Bold/Arrow - Down 2" rx="-0.500000" width="21.000000" height="21.000000" transform="translate(0.500000 0.500000)" fill="#FFFFFF" fill-opacity="0"/>
	<path id="Arrow - Down 2" d="M9.96 15.24C9.91 15.19 9.68 14.99 9.49 14.81C8.31 13.74 6.39 10.96 5.8 9.5C5.71 9.28 5.51 8.72 5.5 8.42C5.5 8.13 5.56 7.86 5.69 7.6C5.88 7.27 6.18 7.01 6.52 6.87C6.76 6.78 7.49 6.63 7.5 6.63C8.29 6.49 9.57 6.41 10.99 6.41C12.34 6.41 13.57 6.49 14.37 6.61C14.38 6.62 15.28 6.76 15.59 6.92C16.15 7.21 16.5 7.77 16.5 8.37L16.5 8.42C16.48 8.81 16.13 9.63 16.12 9.63C15.53 11.01 13.7 13.73 12.48 14.82C12.48 14.82 12.17 15.13 11.98 15.27C11.7 15.47 11.35 15.58 11 15.58C10.61 15.58 10.25 15.46 9.96 15.24Z" fill="#27AE60" fill-opacity="1.000000" fill-rule="nonzero"/>
</svg>
