<svg width="24.000000" height="24.000000" viewBox="0 0 24 24" fill="none" xmlns="http://www.w3.org/2000/svg" xmlns:xlink="http://www.w3.org/1999/xlink">
	<desc>
			Created with Pixso.
	</desc>
	<defs/>
	<rect id="Iconly/Regular/Bold/Edit" rx="-0.500000" width="23.000000" height="23.000000" transform="translate(0.500000 0.500000)" fill="#FFFFFF" fill-opacity="0"/>
	<path id="Edit" d="M9.3764 20.0279L18.1628 8.66544C18.6403 8.0527 18.8101 7.3443 18.6509 6.62299C18.513 5.96725 18.1097 5.34377 17.5049 4.87079L16.0299 3.69907C14.7458 2.67784 13.1541 2.78534 12.2415 3.95706L11.2547 5.23735C11.1273 5.39752 11.1591 5.63402 11.3183 5.76302C11.3183 5.76302 13.812 7.76247 13.8651 7.80547C14.0349 7.96671 14.1622 8.1817 14.1941 8.4397C14.2471 8.94493 13.8969 9.41792 13.377 9.48242C13.1329 9.51466 12.8994 9.43942 12.7297 9.29967L10.1086 7.21422C9.98126 7.11855 9.79025 7.13898 9.68413 7.26797L3.45514 15.3303C3.0519 15.8355 2.91394 16.4912 3.0519 17.1255L3.84776 20.5761C3.89021 20.7589 4.04939 20.8879 4.2404 20.8879L7.74222 20.8449C8.37891 20.8341 8.97316 20.5439 9.3764 20.0279ZM14.2797 18.9532L19.9898 18.9532C20.5469 18.9532 21 19.4123 21 19.9766C21 20.5421 20.5469 21 19.9898 21L14.2797 21C13.7226 21 13.2695 20.5421 13.2695 19.9766C13.2695 19.4123 13.7226 18.9532 14.2797 18.9532Z" clip-rule="evenodd" fill="#252525" fill-opacity="1.000000" fill-rule="evenodd"/>
</svg>
