<svg width="59.000000" height="31.000000" viewBox="0 0 59 31" fill="none" xmlns="http://www.w3.org/2000/svg" xmlns:xlink="http://www.w3.org/1999/xlink">
	<desc>
			Created with Pixso.
	</desc>
	<defs/>
	<path id="Vector" d="M20.61 2.67C20.8 0.91 20.8 0.91 20.8 0.91L20.73 0.91C20.69 0.9 20.63 0.89 20.55 0.89C20.38 0.87 20.15 0.84 19.85 0.81C19.25 0.75 18.4 0.67 17.41 0.58C15.42 0.4 12.81 0.19 10.37 0.07C7.99 -0.03 5.59 -0.06 4.12 0.19C3.75 0.25 3.33 0.35 2.95 0.52C2.66 0.65 1.87 1.05 1.64 2.02C1.39 3.08 2.01 3.83 2.29 4.1C2.62 4.43 3.04 4.7 3.45 4.93C3.57 5 3.93 5.33 4.3 6.42C4.64 7.44 4.89 8.82 5.03 10.45C5.08 11.09 5.12 11.75 5.14 12.43C4 13.18 2.95 14.11 2.09 15.29C0.26 17.8 -0.49 21.16 0.32 25.47C0.52 26.5 0.73 27.36 0.96 28.07C1.18 28.75 1.46 29.4 1.83 29.9C2.18 30.38 2.88 31.06 3.94 30.99C4.9 30.93 5.51 30.27 5.81 29.87C6.44 29.04 6.89 27.74 7.23 26.42C7.59 25.03 7.9 23.35 8.13 21.54C8.41 19.35 8.6 16.92 8.63 14.55C9.1 14.34 9.6 14.15 10.11 13.98C12.26 13.29 14.54 13.03 16.32 12.96C17.2 12.92 17.94 12.93 18.45 12.94C18.71 12.95 18.91 12.96 19.04 12.97C19.11 12.98 19.16 12.98 19.19 12.98L19.22 12.98L19.23 12.98C19.23 12.98 19.23 12.98 19.37 11.22C19.52 9.45 19.52 9.45 19.52 9.45L19.52 9.45L19.51 9.45L19.5 9.45C19.48 9.45 19.47 9.45 19.44 9.45C19.4 9.45 19.33 9.44 19.25 9.44C19.09 9.43 18.85 9.41 18.56 9.4C17.98 9.39 17.15 9.38 16.17 9.42C14.23 9.5 11.62 9.78 9.06 10.61C8.89 10.66 8.71 10.72 8.53 10.79C8.52 10.57 8.5 10.36 8.48 10.15C8.33 8.37 8.05 6.67 7.58 5.27C7.38 4.69 7.13 4.09 6.8 3.54C7.78 3.53 8.94 3.55 10.21 3.61C12.58 3.72 15.13 3.93 17.1 4.11C18.08 4.19 18.91 4.28 19.5 4.34C19.8 4.37 20.03 4.39 20.19 4.41C20.26 4.42 20.33 4.42 20.37 4.43L20.43 4.44L20.61 2.67ZM23.85 1L23.85 4.9L27.94 4.9L27.94 1L23.85 1ZM57.14 18.7L59 18.7L59 22.43L56.11 22.43C55 22.43 54.04 22.21 53.22 21.77C52.41 21.33 51.79 20.7 51.36 19.88C50.93 19.04 50.72 18.04 50.72 16.9L50.72 10.31L47.97 10.31L47.97 9.42L53.97 2.92L54.73 2.92L54.73 6.96L58.91 6.96L58.91 10.31L54.81 10.31L54.81 16.35C54.81 17.1 55.01 17.68 55.4 18.1C55.82 18.5 56.4 18.7 57.14 18.7ZM44.58 8.36Q44.06 7.74 43.4 7.33Q42.19 6.59 40.52 6.59C39.99 6.59 39.49 6.64 39 6.76C38.53 6.85 38.08 7.01 37.65 7.22C37.22 7.41 36.82 7.64 36.45 7.93C36.09 8.2 35.77 8.51 35.49 8.88L34.68 6.96L31.87 6.96L31.87 22.43L35.97 22.43L35.97 14.29C35.97 13.47 36.1 12.75 36.36 12.14C36.64 11.53 37.04 11.06 37.54 10.74C38.07 10.41 38.67 10.25 39.37 10.25C41.12 10.25 42 11.41 42 13.72L42 22.43L46.1 22.43L46.1 13.06C46.1 11.09 45.59 9.53 44.58 8.36ZM23.85 6.96L23.85 22.43L27.94 22.43L27.94 6.96L23.85 6.96ZM4.87 17.4C4.93 17.32 5 17.24 5.06 17.16C4.98 18.5 4.85 19.83 4.69 21.08C4.47 22.78 4.19 24.31 3.88 25.52L3.88 25.52C3.83 25.3 3.78 25.06 3.73 24.8C3.06 21.27 3.73 18.97 4.87 17.4ZM3.05 27.73C3.04 27.74 3.04 27.75 3.04 27.75C3.04 27.75 3.04 27.74 3.05 27.73Z" fill="#000000" fill-opacity="1.000000" fill-rule="evenodd"/>
</svg>
