<svg width="168.000000" height="168.000000" viewBox="0 0 168 168" fill="none" xmlns="http://www.w3.org/2000/svg" xmlns:xlink="http://www.w3.org/1999/xlink">
	<desc>
			Created with Pixso.
	</desc>
	<defs/>
	<path id="Vector" d="M23.97 0C34.25 0 36.7 2.44 36.7 12.72L36.7 23.98C36.7 34.25 34.25 36.7 23.97 36.7L12.72 36.7C2.44 36.7 0 34.25 0 23.98L0 12.72C0 2.44 2.44 0 12.72 0L23.97 0ZM45.77 5.24L42.47 5.24C41.48 5.24 40.68 4.44 40.68 3.46L40.68 1.78C40.68 0.79 41.48 0 42.47 0L49.23 0C50.21 0 51.01 0.79 51.01 1.78L51.01 8.54C51.01 9.53 50.21 10.32 49.23 10.32L47.55 10.32C46.57 10.32 45.77 9.53 45.77 8.54L45.77 5.24ZM71.36 5.24L67.9 5.24C66.91 5.24 66.11 4.44 66.11 3.46L66.11 1.78C66.11 0.79 66.91 0 67.9 0L79.75 0C80.73 0 81.53 0.79 81.53 1.78L81.53 5.08L85.41 5.08C85.92 4.94 86.32 4.54 86.46 4.03L86.46 1.78C86.46 0.79 87.25 0 88.24 0L120.43 0C121.42 0 122.22 0.79 122.22 1.78L122.22 5.24L106.96 5.24L106.96 10.17L110.26 10.17C111.25 10.17 112.04 10.97 112.04 11.95L112.04 15.41L106.96 15.41L106.96 18.71C106.96 19.7 106.16 20.5 105.18 20.5L103.5 20.5C102.51 20.5 101.72 19.7 101.72 18.71L101.72 5.24L91.7 5.24L91.7 10.17L95 10.17C95.99 10.17 96.79 10.97 96.79 11.95L96.79 15.41L86.61 15.41L86.61 18.71C86.61 19.7 85.82 20.5 84.83 20.5L83.15 20.5C82.17 20.5 81.37 19.7 81.37 18.71L81.37 10.32L78.07 10.32C77.08 10.32 76.28 9.53 76.28 8.54L76.28 5.24L71.36 5.24ZM154.85 0C165.12 0 167.57 2.44 167.57 12.72L167.57 23.98C167.57 34.25 165.12 36.7 154.85 36.7L143.59 36.7C133.31 36.7 130.87 34.25 130.87 23.98L130.87 12.72C130.87 2.44 133.31 0 143.59 0L154.85 0ZM61.18 10.32L57.72 10.32C56.74 10.32 55.94 9.53 55.94 8.54L55.94 6.86C55.94 5.88 56.74 5.08 57.72 5.08L64.49 5.08C65.47 5.08 66.27 5.88 66.27 6.86L66.27 10.32L61.18 10.32ZM31.45 23.98L31.45 12.72C31.45 7.72 30.78 6.5 30.48 6.21C30.19 5.92 28.97 5.24 23.97 5.24L12.72 5.24C7.72 5.24 6.5 5.92 6.21 6.21C5.92 6.5 5.24 7.72 5.24 12.72L5.24 23.98C5.24 28.97 5.92 30.19 6.21 30.48C6.5 30.78 7.72 31.46 12.72 31.46L23.97 31.46C28.97 31.46 30.19 30.78 30.48 30.48C30.78 30.19 31.45 28.97 31.45 23.98ZM162.33 23.98L162.33 12.72C162.33 7.72 161.65 6.5 161.36 6.21C161.06 5.92 159.84 5.24 154.85 5.24L143.59 5.24C138.59 5.24 137.38 5.92 137.08 6.21C136.79 6.5 136.11 7.72 136.11 12.72L136.11 23.98C136.11 28.97 136.79 30.19 137.08 30.48C137.38 30.78 138.59 31.46 143.59 31.46L154.85 31.46C159.84 31.46 161.06 30.78 161.36 30.48C161.65 30.19 162.33 28.97 162.33 23.98ZM66.11 14.21L66.11 11.95C66.11 10.97 66.91 10.17 67.9 10.17L74.66 10.17C75.64 10.17 76.44 10.97 76.44 11.95L76.44 18.71C76.44 19.7 75.64 20.5 74.66 20.5L66.27 20.5L66.27 25.43L69.57 25.43C70.56 25.43 71.36 26.22 71.36 27.21L71.36 30.67L66.27 30.67L66.27 39.06C66.27 40.04 65.47 40.84 64.49 40.84L57.72 40.84C56.74 40.84 55.94 40.04 55.94 39.06L55.94 37.38C55.94 36.4 56.74 35.6 57.72 35.6L61.03 35.6L61.03 30.67L57.72 30.67C56.74 30.67 55.94 29.87 55.94 28.89L55.94 27.21C55.94 26.22 56.74 25.43 57.72 25.43L61.03 25.43L61.03 20.5L57.72 20.5C56.74 20.5 55.94 19.7 55.94 18.71L55.94 17.04C55.94 16.05 56.74 15.25 57.72 15.25L65.06 15.25C65.57 15.12 65.97 14.72 66.11 14.21ZM122.06 11.67C122.06 10.84 122.73 10.17 123.56 10.17L125.8 10.17C126.63 10.17 127.3 10.83 127.31 11.67L127.31 13.91C127.31 14.74 126.64 15.41 125.81 15.41L123.56 15.41C122.73 15.41 122.06 14.75 122.06 13.92L122.06 11.67ZM20.76 10.48C25.16 10.48 26.21 11.53 26.21 15.93L26.21 20.76C26.21 25.16 25.16 26.21 20.76 26.21L15.93 26.21C11.53 26.21 10.48 25.16 10.48 20.76L10.48 15.93C10.48 11.53 11.53 10.48 15.93 10.48L20.76 10.48ZM151.63 10.48C156.03 10.48 157.08 11.53 157.08 15.93L157.08 20.76C157.08 25.16 156.03 26.21 151.63 26.21L146.81 26.21C142.4 26.21 141.35 25.16 141.35 20.76L141.35 15.93C141.35 11.53 142.4 10.48 146.81 10.48L151.63 10.48ZM111.89 16.75C111.89 15.92 112.56 15.25 113.39 15.25L115.63 15.25C116.46 15.25 117.13 15.92 117.14 16.75L117.14 19C117.14 19.83 116.47 20.5 115.64 20.5L113.39 20.5C112.56 20.5 111.89 19.83 111.89 19L111.89 16.75ZM50.85 21.84C50.85 21.01 51.53 20.34 52.35 20.34L54.6 20.34C55.43 20.34 56.1 21.01 56.1 21.84L56.1 24.08C56.1 24.91 55.44 25.58 54.6 25.58L52.35 25.58C51.53 25.58 50.85 24.92 50.85 24.09L50.85 21.84ZM76.28 25.58L76.28 22.12C76.28 21.14 77.08 20.34 78.07 20.34L79.75 20.34C80.73 20.34 81.53 21.14 81.53 22.12L81.53 28.89C81.53 29.87 80.73 30.67 79.75 30.67L78.07 30.67C77.08 30.67 76.28 29.87 76.28 28.89L76.28 25.58ZM91.54 21.84C91.54 21.01 92.21 20.34 93.04 20.34L95.29 20.34C96.11 20.34 96.79 21.01 96.79 21.84L96.79 24.08C96.79 24.91 96.13 25.58 95.29 25.58L93.04 25.58C92.21 25.58 91.54 24.92 91.54 24.09L91.54 21.84ZM106.8 21.84C106.8 21.01 107.47 20.34 108.3 20.34L110.54 20.34C111.37 20.34 112.04 21.01 112.05 21.84L112.05 24.08C112.05 24.91 111.38 25.58 110.55 25.58L108.3 25.58C107.47 25.58 106.8 24.92 106.8 24.09L106.8 21.84ZM116.97 21.84C116.97 21.01 117.64 20.34 118.47 20.34L120.72 20.34C121.55 20.34 122.22 21.01 122.22 21.84L122.22 24.08C122.22 24.91 121.56 25.58 120.72 25.58L118.47 25.58C117.64 25.58 116.97 24.92 116.97 24.09L116.97 21.84ZM101.72 30.67L101.72 27.21C101.72 26.22 102.51 25.43 103.5 25.43L105.18 25.43C106.16 25.43 106.96 26.22 106.96 27.21L106.96 33.97C106.96 34.96 106.16 35.76 105.18 35.76L103.5 35.76C102.51 35.76 101.72 34.96 101.72 33.97L101.72 30.67ZM50.85 32.01C50.85 31.18 51.53 30.51 52.35 30.51L54.6 30.51C55.43 30.51 56.1 31.18 56.1 32.01L56.1 34.26C56.1 35.08 55.44 35.76 54.6 35.76L52.35 35.76C51.53 35.76 50.85 35.09 50.85 34.26L50.85 32.01ZM71.2 32.01C71.2 31.18 71.87 30.51 72.7 30.51L74.94 30.51C75.77 30.51 76.44 31.18 76.45 32.01L76.45 34.26C76.45 35.08 75.78 35.76 74.95 35.76L72.7 35.76C71.87 35.76 71.2 35.09 71.2 34.26L71.2 32.01ZM81.37 35.76L81.37 32.29C81.37 31.31 82.17 30.51 83.15 30.51L84.83 30.51C85.82 30.51 86.61 31.31 86.61 32.29L86.61 40.69L89.92 40.69C90.9 40.69 91.7 41.48 91.7 42.47L91.7 45.93L86.61 45.93L86.61 49.23C86.61 50.22 85.82 51.01 84.83 51.01L67.9 51.01C66.91 51.01 66.11 50.22 66.11 49.23L66.11 47.55C66.11 46.57 66.91 45.77 67.9 45.77L75.24 45.77C75.74 45.63 76.15 45.23 76.28 44.72L76.28 42.47C76.28 41.48 77.08 40.69 78.07 40.69L80.32 40.69C80.83 40.55 81.23 40.15 81.37 39.64L81.37 35.76ZM91.54 35.76L91.54 32.29C91.54 31.31 92.34 30.51 93.33 30.51L95 30.51C95.99 30.51 96.79 31.31 96.79 32.29L96.79 39.06C96.79 40.04 95.99 40.84 95 40.84L93.33 40.84C92.34 40.84 91.54 40.04 91.54 39.06L91.54 35.76ZM111.89 32.01C111.89 31.18 112.56 30.51 113.39 30.51L115.63 30.51C116.46 30.51 117.13 31.18 117.14 32.01L117.14 34.26C117.14 35.08 116.47 35.76 115.64 35.76L113.39 35.76C112.56 35.76 111.89 35.09 111.89 34.26L111.89 32.01ZM122.06 32.01C122.06 31.18 122.73 30.51 123.56 30.51L125.8 30.51C126.63 30.51 127.3 31.18 127.31 32.01L127.31 34.26C127.31 35.08 126.64 35.76 125.81 35.76L123.56 35.76C122.73 35.76 122.06 35.09 122.06 34.26L122.06 32.01ZM45.77 40.84L45.77 37.38C45.77 36.4 46.57 35.6 47.55 35.6L49.23 35.6C50.21 35.6 51.01 36.4 51.01 37.38L51.01 40.69L54.32 40.69C55.3 40.69 56.1 41.48 56.1 42.47L56.1 45.77L59.4 45.77C60.39 45.77 61.18 46.57 61.18 47.55L61.18 50.86L64.49 50.86C65.47 50.86 66.27 51.65 66.27 52.64L66.27 56.1L61.18 56.1L61.18 59.4C61.18 60.39 60.39 61.19 59.4 61.19L57.72 61.19C56.74 61.19 55.94 60.39 55.94 59.4L55.94 51.01L52.64 51.01C51.65 51.01 50.85 50.22 50.85 49.23L50.85 45.93L47.55 45.93C46.57 45.93 45.77 45.13 45.77 44.15L45.77 40.84ZM106.8 37.1C106.8 36.27 107.47 35.6 108.3 35.6L110.54 35.6C111.37 35.6 112.04 36.26 112.05 37.1L112.05 39.34C112.05 40.17 111.38 40.84 110.55 40.84L108.3 40.84C107.47 40.84 106.8 40.18 106.8 39.35L106.8 37.1ZM5.08 45.93L5.08 45.77L5.08 42.47C5.08 41.48 5.88 40.69 6.86 40.69L39.06 40.69C40.04 40.69 40.84 41.48 40.84 42.47L40.84 49.23C40.84 50.22 40.04 51.01 39.06 51.01L37.38 51.01C36.39 51.01 35.6 50.22 35.6 49.23L35.6 45.93L30.67 45.93L30.67 49.23C30.67 50.22 29.87 51.01 28.89 51.01L25.58 51.01L25.58 61.03L44.72 61.03C45.23 60.89 45.63 60.49 45.77 59.98L45.77 57.73C45.77 56.74 46.57 55.94 47.55 55.94L49.23 55.94C50.21 55.94 51.01 56.74 51.01 57.73L51.01 66.11L59.4 66.11C60.39 66.11 61.18 66.91 61.18 67.9L61.18 71.36L40.84 71.36L40.84 74.66C40.84 75.65 40.04 76.45 39.06 76.45L27.21 76.45C26.22 76.45 25.42 75.65 25.42 74.66L25.42 72.98C25.42 72 26.22 71.2 27.21 71.2L35.6 71.2L35.6 66.27L22.12 66.27C21.14 66.27 20.34 65.47 20.34 64.49L20.34 61.19L6.86 61.19C5.88 61.19 5.08 60.39 5.08 59.4L5.08 56.1L5.08 55.94L5.08 51.01L5.08 50.86L5.08 45.93ZM15.25 45.93L10.32 45.93L10.32 50.86L13.63 50.86C14.61 50.86 15.41 51.65 15.41 52.64L15.41 55.94L19.29 55.94C19.8 55.81 20.2 55.41 20.34 54.9L20.34 51.01L17.04 51.01C16.05 51.01 15.25 50.22 15.25 49.23L15.25 45.93ZM101.72 44.72L101.72 42.47C101.72 41.48 102.51 40.69 103.5 40.69L105.18 40.69C106.16 40.69 106.96 41.48 106.96 42.47L106.96 45.77L110.26 45.77C111.25 45.77 112.04 46.57 112.04 47.55L112.04 51.01L96.79 51.01L96.79 54.32C96.79 55.3 95.99 56.1 95 56.1L93.33 56.1C92.34 56.1 91.54 55.3 91.54 54.32L91.54 47.55C91.54 46.57 92.34 45.77 93.33 45.77L100.67 45.77C101.17 45.63 101.58 45.23 101.72 44.72ZM111.89 42.18C111.89 41.36 112.56 40.69 113.39 40.69L115.63 40.69C116.46 40.69 117.13 41.35 117.14 42.18L117.14 44.43C117.14 45.26 116.47 45.93 115.64 45.93L113.39 45.93C112.56 45.93 111.89 45.26 111.89 44.43L111.89 42.18ZM122.06 42.18C122.06 41.36 122.73 40.69 123.56 40.69L125.8 40.69C126.63 40.69 127.3 41.35 127.31 42.18L127.31 44.43C127.31 45.26 126.64 45.93 125.81 45.93L123.56 45.93C122.73 45.93 122.06 45.26 122.06 44.43L122.06 42.18ZM137.32 44.72L137.32 42.47C137.32 41.48 138.12 40.69 139.1 40.69L145.86 40.69C146.85 40.69 147.65 41.48 147.65 42.47L147.65 45.93L142.56 45.93L142.56 49.23C142.56 50.22 141.76 51.01 140.78 51.01L134.01 51.01C133.03 51.01 132.23 50.22 132.23 49.23L132.23 47.55C132.23 46.57 133.03 45.77 134.01 45.77L136.27 45.77C136.78 45.63 137.18 45.23 137.32 44.72ZM162.75 45.93L162.75 42.47C162.75 41.48 163.55 40.69 164.53 40.69L166.21 40.69C167.19 40.69 167.99 41.48 167.99 42.47L167.99 49.23C167.99 50.22 167.19 51.01 166.21 51.01L164.53 51.01C163.55 51.01 162.75 50.22 162.75 49.23L162.75 45.93ZM116.97 47.27C116.97 46.44 117.64 45.77 118.47 45.77L120.72 45.77C121.55 45.77 122.22 46.44 122.22 47.27L122.22 49.51C122.22 50.34 121.56 51.01 120.72 51.01L118.47 51.01C117.64 51.01 116.97 50.35 116.97 49.52L116.97 47.27ZM30.51 52.36C30.51 51.53 31.18 50.86 32.01 50.86L34.25 50.86C35.08 50.86 35.75 51.52 35.76 52.36L35.76 54.6C35.76 55.43 35.09 56.1 34.26 56.1L32.01 56.1C31.18 56.1 30.51 55.43 30.51 54.61L30.51 52.36ZM111.89 52.36C111.89 51.53 112.56 50.86 113.39 50.86L115.63 50.86C116.46 50.86 117.13 51.52 117.14 52.36L117.14 54.6C117.14 55.43 116.47 56.1 115.64 56.1L113.39 56.1C112.56 56.1 111.89 55.43 111.89 54.61L111.89 52.36ZM127.15 56.1L123.84 56.1C122.86 56.1 122.06 55.3 122.06 54.32L122.06 52.64C122.06 51.65 122.86 50.86 123.84 50.86L130.61 50.86C131.59 50.86 132.39 51.65 132.39 52.64L132.39 59.4C132.39 60.39 131.59 61.19 130.61 61.19L128.93 61.19C127.94 61.19 127.15 60.39 127.15 59.4L127.15 56.1ZM71.2 57.44C71.2 56.61 71.87 55.94 72.7 55.94L74.94 55.94C75.77 55.94 76.44 56.61 76.45 57.44L76.45 59.69C76.45 60.52 75.78 61.19 74.95 61.19L72.7 61.19C71.87 61.19 71.2 60.52 71.2 59.69L71.2 57.44ZM96.63 59.98L96.63 57.73C96.63 56.74 97.43 55.94 98.41 55.94L100.09 55.94C101.07 55.94 101.87 56.74 101.87 57.73L101.87 64.49C101.87 65.47 101.07 66.27 100.09 66.27L93.33 66.27C92.34 66.27 91.54 65.47 91.54 64.49L91.54 62.81C91.54 61.83 92.34 61.03 93.33 61.03L95.58 61.03C96.09 60.89 96.49 60.49 96.63 59.98ZM106.8 57.44C106.8 56.61 107.47 55.94 108.3 55.94L110.54 55.94C111.37 55.94 112.04 56.61 112.05 57.44L112.05 59.69C112.05 60.52 111.38 61.19 110.55 61.19L108.3 61.19C107.47 61.19 106.8 60.52 106.8 59.69L106.8 57.44ZM116.97 59.98L116.97 57.73C116.97 56.74 117.77 55.94 118.76 55.94L120.43 55.94C121.42 55.94 122.22 56.74 122.22 57.73L122.22 61.03L125.52 61.03C126.5 61.03 127.3 61.83 127.3 62.81L127.3 66.27L122.22 66.27L122.22 69.58C122.22 70.56 121.42 71.36 120.43 71.36L118.76 71.36C117.77 71.36 116.97 70.56 116.97 69.58L116.97 66.27L113.67 66.27C112.69 66.27 111.89 65.47 111.89 64.49L111.89 62.81C111.89 61.83 112.69 61.03 113.67 61.03L115.92 61.03C116.43 60.89 116.83 60.49 116.97 59.98ZM61.03 62.53C61.03 61.7 61.7 61.03 62.53 61.03L64.77 61.03C65.6 61.03 66.27 61.7 66.28 62.53L66.28 64.77C66.28 65.6 65.61 66.27 64.78 66.27L62.53 66.27C61.7 66.27 61.03 65.61 61.03 64.78L61.03 62.53ZM76.28 65.07L76.28 62.81C76.28 61.83 77.08 61.03 78.07 61.03L84.83 61.03C85.82 61.03 86.61 61.83 86.61 62.81L86.61 66.27L81.53 66.27L81.53 69.58C81.53 70.56 80.73 71.36 79.75 71.36L72.98 71.36C72 71.36 71.2 70.56 71.2 69.58L71.2 67.9C71.2 66.91 72 66.11 72.98 66.11L75.24 66.11C75.74 65.98 76.15 65.58 76.28 65.07ZM5.08 67.61C5.08 66.79 5.75 66.11 6.58 66.11L8.82 66.11C9.65 66.11 10.32 66.78 10.33 67.61L10.33 69.86C10.33 70.69 9.66 71.36 8.83 71.36L6.58 71.36C5.75 71.36 5.08 70.69 5.08 69.86L5.08 67.61ZM86.46 70.15L86.46 67.9C86.46 66.91 87.25 66.11 88.24 66.11L89.92 66.11C90.9 66.11 91.7 66.91 91.7 67.9L91.7 74.66C91.7 75.65 90.9 76.45 89.92 76.45L86.61 76.45L86.61 79.75C86.61 80.73 85.82 81.53 84.83 81.53L83.15 81.53C82.17 81.53 81.37 80.73 81.37 79.75L81.37 72.98C81.37 72 82.17 71.2 83.15 71.2L85.41 71.2C85.92 71.06 86.32 70.66 86.46 70.15ZM106.8 71.36L103.5 71.36C102.51 71.36 101.72 70.56 101.72 69.58L101.72 67.9C101.72 66.91 102.51 66.11 103.5 66.11L110.26 66.11C111.25 66.11 112.04 66.91 112.04 67.9L112.04 71.2L115.35 71.2C116.33 71.2 117.13 72 117.13 72.98L117.13 79.75C117.13 80.73 116.33 81.53 115.35 81.53L101.87 81.53L101.87 86.46L110.26 86.46C111.25 86.46 112.04 87.26 112.04 88.24L112.04 96.63L120.43 96.63C121.42 96.63 122.22 97.43 122.22 98.41L122.22 101.88L117.13 101.88L117.13 105.18C117.13 106.16 116.33 106.96 115.35 106.96L113.67 106.96C112.69 106.96 111.89 106.16 111.89 105.18L111.89 101.88L101.87 101.88L101.87 105.18C101.87 106.16 101.07 106.96 100.09 106.96L98.41 106.96C97.43 106.96 96.63 106.16 96.63 105.18L96.63 98.41C96.63 97.43 97.43 96.63 98.41 96.63L101.72 96.63L101.72 91.7L91.7 91.7L91.7 95.01C91.7 95.99 90.9 96.79 89.92 96.79L83.15 96.79C82.17 96.79 81.37 95.99 81.37 95.01L81.37 91.7L78.07 91.7C77.08 91.7 76.28 90.91 76.28 89.92L76.28 86.62L72.98 86.62C72 86.62 71.2 85.82 71.2 84.83L71.2 81.53L67.9 81.53C66.91 81.53 66.11 80.73 66.11 79.75L66.11 76.45L62.81 76.45C61.83 76.45 61.03 75.65 61.03 74.66L61.03 72.98C61.03 72 61.83 71.2 62.81 71.2L69.57 71.2C70.56 71.2 71.36 72 71.36 72.98L71.36 76.29L74.66 76.29C75.64 76.29 76.44 77.09 76.44 78.07L76.44 81.37L79.75 81.37C80.73 81.37 81.53 82.17 81.53 83.16L81.53 86.46L85.41 86.46C85.92 86.32 86.32 85.92 86.46 85.41L86.46 83.16C86.46 82.17 87.25 81.37 88.24 81.37L89.92 81.37C90.9 81.37 91.7 82.17 91.7 83.16L91.7 86.46L95.58 86.46C96.09 86.32 96.49 85.92 96.63 85.41L96.63 81.53L93.33 81.53C92.34 81.53 91.54 80.73 91.54 79.75L91.54 78.07C91.54 77.09 92.34 76.29 93.33 76.29L95.58 76.29C96.09 76.15 96.49 75.75 96.63 75.24L96.63 72.98C96.63 72 97.43 71.2 98.41 71.2L100.09 71.2C101.07 71.2 101.87 72 101.87 72.98L101.87 76.29L105.75 76.29C106.26 76.15 106.66 75.75 106.8 75.24L106.8 71.36ZM15.25 75.24L15.25 72.98C15.25 72 16.05 71.2 17.04 71.2L18.71 71.2C19.7 71.2 20.5 72 20.5 72.98L20.5 76.29L23.8 76.29C24.78 76.29 25.58 77.09 25.58 78.07L25.58 81.53L10.32 81.53L10.32 84.83C10.32 85.82 9.53 86.62 8.54 86.62L6.86 86.62C5.88 86.62 5.08 85.82 5.08 84.83L5.08 78.07C5.08 77.09 5.88 76.29 6.86 76.29L14.2 76.29C14.71 76.15 15.11 75.75 15.25 75.24ZM40.68 77.79C40.68 76.96 41.35 76.29 42.18 76.29L44.43 76.29C45.26 76.29 45.93 76.95 45.93 77.79L45.93 80.03C45.93 80.86 45.27 81.53 44.43 81.53L42.18 81.53C41.35 81.53 40.68 80.87 40.68 80.04L40.68 77.79ZM55.94 77.79C55.94 76.96 56.61 76.29 57.44 76.29L59.68 76.29C60.51 76.29 61.18 76.95 61.19 77.79L61.19 80.03C61.19 80.86 60.52 81.53 59.69 81.53L57.44 81.53C56.61 81.53 55.94 80.87 55.94 80.04L55.94 77.79ZM30.67 86.62L27.21 86.62C26.22 86.62 25.42 85.82 25.42 84.83L25.42 83.16C25.42 82.17 26.22 81.37 27.21 81.37L39.06 81.37C40.04 81.37 40.84 82.17 40.84 83.16L40.84 86.62L30.67 86.62ZM61.03 82.87C61.03 82.04 61.7 81.37 62.53 81.37L64.77 81.37C65.6 81.37 66.27 82.04 66.28 82.87L66.28 85.12C66.28 85.95 65.61 86.62 64.78 86.62L62.53 86.62C61.7 86.62 61.03 85.95 61.03 85.12L61.03 82.87ZM15.25 91.7L15.25 88.24C15.25 87.26 16.05 86.46 17.04 86.46L23.8 86.46C24.78 86.46 25.58 87.26 25.58 88.24L25.58 91.7L20.5 91.7L20.5 95.01C20.5 95.99 19.7 96.79 18.71 96.79L17.04 96.79C16.05 96.79 15.25 95.99 15.25 95.01L15.25 91.7ZM40.68 90.5L40.68 88.24C40.68 87.26 41.48 86.46 42.47 86.46L59.4 86.46C60.39 86.46 61.18 87.26 61.18 88.24L61.18 91.7L56.1 91.7L56.1 95.01C56.1 95.99 55.3 96.79 54.32 96.79L45.93 96.79L45.93 100.09C45.93 101.08 45.13 101.88 44.14 101.88L42.47 101.88C41.48 101.88 40.68 101.08 40.68 100.09L40.68 96.79L30.67 96.79L30.67 101.72L39.06 101.72C40.04 101.72 40.84 102.52 40.84 103.5L40.84 106.96L25.58 106.96L25.58 110.27C25.58 111.25 24.78 112.05 23.8 112.05L15.41 112.05L15.41 115.35C15.41 116.34 14.61 117.13 13.63 117.13L11.95 117.13C10.97 117.13 10.17 116.34 10.17 115.35L10.17 108.59C10.17 107.6 10.97 106.81 11.95 106.81L14.2 106.81C14.71 106.67 15.11 106.27 15.25 105.76L15.25 103.5C15.25 102.52 16.05 101.72 17.04 101.72L24.38 101.72C24.88 101.58 25.29 101.18 25.42 100.67L25.42 93.33C25.42 92.34 26.22 91.55 27.21 91.55L39.63 91.55C40.14 91.41 40.54 91.01 40.68 90.5ZM5.08 96.79L1.78 96.79C0.79 96.79 0 95.99 0 95.01L0 93.33C0 92.34 0.79 91.55 1.78 91.55L8.54 91.55C9.53 91.55 10.32 92.34 10.32 93.33L10.32 96.63L13.63 96.63C14.61 96.63 15.41 97.43 15.41 98.41L15.41 101.88L6.86 101.88C5.88 101.88 5.08 101.08 5.08 100.09L5.08 96.79ZM71.2 96.79L71.2 93.33C71.2 92.34 72 91.55 72.98 91.55L74.66 91.55C75.64 91.55 76.44 92.34 76.44 93.33L76.44 96.63L79.75 96.63C80.73 96.63 81.53 97.43 81.53 98.41L81.53 101.88L76.44 101.88L76.44 105.18C76.44 106.16 75.64 106.96 74.66 106.96L72.98 106.96C72 106.96 71.2 106.16 71.2 105.18L71.2 96.79ZM61.03 101.88L57.72 101.88C56.74 101.88 55.94 101.08 55.94 100.09L55.94 98.41C55.94 97.43 56.74 96.63 57.72 96.63L64.49 96.63C65.47 96.63 66.27 97.43 66.27 98.41L66.27 106.81L69.57 106.81C70.56 106.81 71.36 107.6 71.36 108.59L71.36 112.05L66.27 112.05L66.27 120.44C66.27 121.42 65.47 122.22 64.49 122.22L62.81 122.22C61.83 122.22 61.03 121.42 61.03 120.44L61.03 117.13L51.01 117.13L51.01 120.44C51.01 121.42 50.21 122.22 49.23 122.22L45.93 122.22L45.93 127.15L45.93 137.32L49.23 137.32C50.21 137.32 51.01 138.12 51.01 139.11L51.01 150.95C51.01 151.94 50.21 152.74 49.23 152.74L45.93 152.74L45.93 157.82L45.93 161.13C45.93 162.11 45.13 162.91 44.14 162.91L42.47 162.91C41.48 162.91 40.68 162.11 40.68 161.13L40.68 118.76C40.68 117.77 41.48 116.98 42.47 116.98L44.73 116.98C45.23 116.84 45.63 116.44 45.77 115.93L45.77 103.5C45.77 102.52 46.57 101.72 47.55 101.72L54.32 101.72C55.3 101.72 56.1 102.52 56.1 103.5L56.1 106.96L51.01 106.96L51.01 111.89L54.89 111.89C55.4 111.75 55.8 111.35 55.94 110.84L55.94 108.59C55.94 107.6 56.74 106.81 57.72 106.81L61.03 106.81L61.03 101.88ZM0 106.96L0 103.5C0 102.52 0.79 101.72 1.78 101.72L3.46 101.72C4.44 101.72 5.24 102.52 5.24 103.5L5.24 125.52C5.24 126.51 4.44 127.31 3.46 127.31L1.78 127.31C0.79 127.31 0 126.51 0 125.52L0 106.96ZM81.37 105.76L81.37 103.5C81.37 102.52 82.17 101.72 83.15 101.72L89.92 101.72C90.9 101.72 91.7 102.52 91.7 103.5L91.7 106.96L86.61 106.96L86.61 110.27C86.61 111.25 85.82 112.05 84.83 112.05L81.53 112.05L81.53 116.98L81.53 117.13L81.53 120.44C81.53 121.42 80.73 122.22 79.75 122.22L78.07 122.22C77.08 122.22 76.28 121.42 76.28 120.44L76.28 108.59C76.28 107.6 77.08 106.81 78.07 106.81L80.32 106.81C80.83 106.67 81.23 106.27 81.37 105.76ZM116.97 108.3C116.97 107.48 117.64 106.81 118.47 106.81L120.72 106.81C121.55 106.81 122.22 107.47 122.22 108.3L122.22 110.55C122.22 111.38 121.56 112.05 120.72 112.05L118.47 112.05C117.64 112.05 116.97 111.38 116.97 110.55L116.97 108.3ZM25.42 115.93L25.42 113.67C25.42 112.69 26.22 111.89 27.21 111.89L33.97 111.89C34.96 111.89 35.75 112.69 35.75 113.67L35.75 117.13L30.67 117.13L30.67 122.06L33.97 122.06C34.96 122.06 35.75 122.86 35.75 123.85L35.75 127.31L30.67 127.31L25.58 127.31L15.25 127.31L11.95 127.31C10.97 127.31 10.17 126.51 10.17 125.52L10.17 123.85C10.17 122.86 10.97 122.06 11.95 122.06L19.29 122.06C19.8 121.93 20.2 121.53 20.34 121.02L20.34 118.76C20.34 117.77 21.14 116.98 22.12 116.98L24.38 116.98C24.89 116.84 25.29 116.44 25.42 115.93ZM86.46 117.13L86.46 113.67C86.46 112.69 87.25 111.89 88.24 111.89L95 111.89C95.99 111.89 96.79 112.69 96.79 113.67L96.79 117.13L91.7 117.13L91.7 120.44C91.7 121.42 90.9 122.22 89.92 122.22L88.24 122.22C87.25 122.22 86.46 121.42 86.46 120.44L86.46 117.13ZM101.72 113.39C101.72 112.56 102.39 111.89 103.21 111.89L105.46 111.89C106.29 111.89 106.96 112.56 106.96 113.39L106.96 115.63C106.96 116.46 106.3 117.13 105.46 117.13L103.21 117.13C102.39 117.13 101.72 116.47 101.72 115.64L101.72 113.39ZM111.89 113.39C111.89 112.56 112.56 111.89 113.39 111.89L115.63 111.89C116.46 111.89 117.13 112.56 117.14 113.39L117.14 115.63C117.14 116.46 116.47 117.13 115.64 117.13L113.39 117.13C112.56 117.13 111.89 116.47 111.89 115.64L111.89 113.39ZM142.4 117.13L137.47 117.13L137.47 122.06L142.4 122.06L142.4 117.13ZM152.58 117.13L147.65 117.13L147.65 122.06L152.58 122.06L152.58 117.13ZM96.63 118.48C96.63 117.65 97.3 116.98 98.13 116.98L100.37 116.98C101.2 116.98 101.87 117.64 101.88 118.48L101.88 120.72C101.88 121.55 101.21 122.22 100.38 122.22L98.13 122.22C97.3 122.22 96.63 121.55 96.63 120.73L96.63 118.48ZM106.8 118.48C106.8 117.65 107.47 116.98 108.3 116.98L110.54 116.98C111.37 116.98 112.04 117.64 112.05 118.48L112.05 120.72C112.05 121.55 111.38 122.22 110.55 122.22L108.3 122.22C107.47 122.22 106.8 121.55 106.8 120.73L106.8 118.48ZM122.06 122.22L117.13 122.22L117.13 127.15L122.06 127.15L122.06 122.22ZM132.23 122.22L127.3 122.22L127.3 127.31L122.22 127.31L122.22 132.24L127.3 132.24L127.3 127.31L132.23 127.31L132.23 122.22ZM137.32 122.22L132.39 122.22L132.39 127.31L137.32 127.31L137.32 122.22ZM162.75 122.22L162.75 118.76C162.75 117.77 163.55 116.98 164.53 116.98L166.21 116.98C167.19 116.98 167.99 117.77 167.99 118.76L167.99 130.61C167.99 131.59 167.19 132.39 166.21 132.39L164.53 132.39C163.55 132.39 162.75 131.59 162.75 130.61L162.75 122.22ZM50.85 127.31L50.85 123.85C50.85 122.86 51.65 122.06 52.64 122.06L54.32 122.06C55.3 122.06 56.1 122.86 56.1 123.85L56.1 130.61C56.1 131.59 55.3 132.39 54.32 132.39L52.64 132.39C51.65 132.39 50.85 131.59 50.85 130.61L50.85 127.31ZM71.2 127.31L71.2 123.85C71.2 122.86 72 122.06 72.98 122.06L74.66 122.06C75.64 122.06 76.44 122.86 76.44 123.85L76.44 127.15L80.32 127.15C80.83 127.01 81.23 126.61 81.37 126.1L81.37 123.85C81.37 122.86 82.17 122.06 83.15 122.06L84.83 122.06C85.82 122.06 86.61 122.86 86.61 123.85L86.61 127.15L100.09 127.15C101.07 127.15 101.87 127.95 101.87 128.93L101.87 132.39L96.79 132.39L96.79 135.7C96.79 136.68 95.99 137.48 95 137.48L93.33 137.48C92.34 137.48 91.54 136.68 91.54 135.7L91.54 132.39L86.61 132.39L86.61 135.7C86.61 136.68 85.82 137.48 84.83 137.48L78.07 137.48C77.08 137.48 76.28 136.68 76.28 135.7L76.28 132.39L72.98 132.39C72 132.39 71.2 131.59 71.2 130.61L71.2 127.31ZM61.03 128.65C61.03 127.82 61.7 127.15 62.53 127.15L64.77 127.15C65.6 127.15 66.27 127.82 66.28 128.65L66.28 130.89C66.28 131.72 65.61 132.39 64.78 132.39L62.53 132.39C61.7 132.39 61.03 131.73 61.03 130.9L61.03 128.65ZM106.8 128.65C106.8 127.82 107.47 127.15 108.3 127.15L110.54 127.15C111.37 127.15 112.04 127.82 112.05 128.65L112.05 130.89C112.05 131.72 111.38 132.39 110.55 132.39L108.3 132.39C107.47 132.39 106.8 131.73 106.8 130.9L106.8 128.65ZM127.3 132.39L122.22 132.39L122.22 137.32L127.3 137.32L127.3 132.39ZM23.97 130.87C34.25 130.87 36.7 133.32 36.7 143.6L36.7 154.85C36.7 165.13 34.25 167.58 23.97 167.58L12.72 167.58C2.44 167.58 0 165.13 0 154.85L0 143.6C0 133.32 2.44 130.87 12.72 130.87L23.97 130.87ZM55.94 137.48L55.94 134.02C55.94 133.03 56.74 132.24 57.72 132.24L59.4 132.24C60.39 132.24 61.18 133.03 61.18 134.02L61.18 137.32L64.49 137.32C65.47 137.32 66.27 138.12 66.27 139.11L66.27 142.41L69.57 142.41C70.56 142.41 71.36 143.21 71.36 144.19L71.36 147.65L66.27 147.65L66.27 150.95C66.27 151.94 65.47 152.74 64.49 152.74L61.18 152.74L61.18 156.04C61.18 157.03 60.39 157.82 59.4 157.82L57.72 157.82C56.74 157.82 55.94 157.03 55.94 156.04L55.94 149.28C55.94 148.29 56.74 147.49 57.72 147.49L61.03 147.49L61.03 142.57L57.72 142.57C56.74 142.57 55.94 141.77 55.94 140.78L55.94 137.48ZM66.11 133.73C66.11 132.91 66.78 132.24 67.61 132.24L69.86 132.24C70.68 132.24 71.36 132.9 71.36 133.73L71.36 135.98C71.36 136.81 70.7 137.48 69.86 137.48L67.61 137.48C66.78 137.48 66.11 136.81 66.11 135.98L66.11 133.73ZM101.72 133.73C101.72 132.91 102.39 132.24 103.21 132.24L105.46 132.24C106.29 132.24 106.96 132.9 106.96 133.73L106.96 135.98C106.96 136.81 106.3 137.48 105.46 137.48L103.21 137.48C102.39 137.48 101.72 136.81 101.72 135.98L101.72 133.73ZM127.3 137.48L122.22 137.48L122.22 142.41L127.3 142.41L127.3 142.57L127.3 147.49L132.23 147.49L132.23 142.41L127.3 142.41L127.3 137.48ZM132.23 133.73C132.23 132.91 132.9 132.24 133.73 132.24L135.97 132.24C136.8 132.24 137.47 132.9 137.48 133.73L137.48 135.98C137.48 136.81 136.81 137.48 135.98 137.48L133.73 137.48C132.9 137.48 132.23 136.81 132.23 135.98L132.23 133.73ZM31.45 154.85L31.45 143.6C31.45 138.6 30.78 137.38 30.48 137.09C30.19 136.8 28.97 136.12 23.97 136.12L12.72 136.12C7.72 136.12 6.5 136.8 6.21 137.09C5.92 137.38 5.24 138.6 5.24 143.6L5.24 154.85C5.24 159.85 5.92 161.07 6.21 161.36C6.5 161.65 7.72 162.33 12.72 162.33L23.97 162.33C28.97 162.33 30.19 161.65 30.48 161.36C30.78 161.07 31.45 159.85 31.45 154.85ZM86.46 138.82C86.46 137.99 87.13 137.32 87.96 137.32L90.2 137.32C91.03 137.32 91.7 137.99 91.71 138.82L91.71 141.07C91.71 141.89 91.04 142.57 90.21 142.57L87.96 142.57C87.13 142.57 86.46 141.9 86.46 141.07L86.46 138.82ZM20.76 141.36C25.16 141.36 26.21 142.41 26.21 146.81L26.21 151.64C26.21 156.04 25.16 157.09 20.76 157.09L15.93 157.09C11.53 157.09 10.48 156.04 10.48 151.64L10.48 146.81C10.48 142.41 11.53 141.36 15.93 141.36L20.76 141.36ZM76.28 143.91C76.28 143.08 76.96 142.41 77.78 142.41L80.03 142.41C80.86 142.41 81.53 143.07 81.53 143.91L81.53 146.15C81.53 146.98 80.87 147.65 80.03 147.65L77.78 147.65C76.96 147.65 76.28 146.99 76.28 146.16L76.28 143.91ZM91.54 147.65L91.54 144.19C91.54 143.21 92.34 142.41 93.33 142.41L95 142.41C95.99 142.41 96.79 143.21 96.79 144.19L96.79 147.49L100.67 147.49C101.18 147.35 101.58 146.96 101.72 146.45L101.72 144.19C101.72 143.21 102.51 142.41 103.5 142.41L105.18 142.41C106.16 142.41 106.96 143.21 106.96 144.19L106.96 147.49L106.96 147.65L106.96 152.58L106.96 152.74L106.96 157.67L110.26 157.67C111.25 157.67 112.04 158.46 112.04 159.45L112.04 162.91L103.5 162.91C102.51 162.91 101.72 162.11 101.72 161.13L101.72 152.74L93.33 152.74C92.34 152.74 91.54 151.94 91.54 150.95L91.54 147.65ZM157.66 143.91C157.66 143.08 158.33 142.41 159.16 142.41L161.4 142.41C162.23 142.41 162.9 143.07 162.91 143.91L162.91 146.15C162.91 146.98 162.24 147.65 161.41 147.65L159.16 147.65C158.33 147.65 157.66 146.99 157.66 146.16L157.66 143.91ZM162.75 148.99C162.75 148.16 163.42 147.49 164.25 147.49L166.49 147.49C167.32 147.49 167.99 148.16 168 148.99L168 151.24C168 152.07 167.33 152.74 166.5 152.74L164.25 152.74C163.42 152.74 162.75 152.07 162.75 151.24L162.75 148.99ZM71.2 157.82L67.9 157.82C66.91 157.82 66.11 157.03 66.11 156.04L66.11 154.36C66.11 153.38 66.91 152.58 67.9 152.58L74.66 152.58C75.64 152.58 76.44 153.38 76.44 154.36L76.44 157.67L79.75 157.67C80.73 157.67 81.53 158.46 81.53 159.45L81.53 162.91L72.98 162.91C72 162.91 71.2 162.11 71.2 161.13L71.2 157.82ZM86.46 154.08C86.46 153.25 87.13 152.58 87.96 152.58L90.2 152.58C91.03 152.58 91.7 153.25 91.71 154.08L91.71 156.32C91.71 157.15 91.04 157.82 90.21 157.82L87.96 157.82C87.13 157.82 86.46 157.16 86.46 156.33L86.46 154.08ZM50.85 161.71L50.85 159.45C50.85 158.46 51.65 157.67 52.64 157.67L54.32 157.67C55.3 157.67 56.1 158.46 56.1 159.45L56.1 166.21C56.1 167.2 55.3 168 54.32 168L47.55 168C46.57 168 45.77 167.2 45.77 166.21L45.77 164.53C45.77 163.55 46.57 162.75 47.55 162.75L49.81 162.75C50.32 162.61 50.72 162.21 50.85 161.71ZM61.03 159.17C61.03 158.34 61.7 157.67 62.53 157.67L64.77 157.67C65.6 157.67 66.27 158.33 66.28 159.17L66.28 161.41C66.28 162.24 65.61 162.91 64.78 162.91L62.53 162.91C61.7 162.91 61.03 162.24 61.03 161.42L61.03 159.17ZM91.54 162.91L91.54 159.45C91.54 158.46 92.34 157.67 93.33 157.67L95 157.67C95.99 157.67 96.79 158.46 96.79 159.45L96.79 166.21C96.79 167.2 95.99 168 95 168L93.33 168C92.34 168 91.54 167.2 91.54 166.21L91.54 162.91ZM81.37 164.25C81.37 163.42 82.04 162.75 82.87 162.75L85.11 162.75C85.94 162.75 86.61 163.42 86.62 164.25L86.62 166.5C86.62 167.32 85.95 168 85.12 168L82.87 168C82.04 168 81.37 167.33 81.37 166.5L81.37 164.25ZM117.13 168L113.67 168C112.69 168 111.89 167.2 111.89 166.21L111.89 164.53C111.89 163.55 112.69 162.75 113.67 162.75L130.61 162.75C131.59 162.75 132.39 163.55 132.39 164.53L132.39 168L117.13 168ZM137.32 164.25C137.32 163.42 137.99 162.75 138.82 162.75L141.06 162.75C141.89 162.75 142.56 163.42 142.57 164.25L142.57 166.5C142.57 167.32 141.9 168 141.07 168L138.82 168C137.99 168 137.32 167.33 137.32 166.5L137.32 164.25ZM157.66 164.25C157.66 163.42 158.33 162.75 159.16 162.75L161.4 162.75C162.23 162.75 162.9 163.42 162.91 164.25L162.91 166.5C162.91 167.32 162.24 168 161.41 168L159.16 168C158.33 168 157.66 167.33 157.66 166.5L157.66 164.25ZM40.68 25.58L40.68 22.12C40.68 21.14 41.48 20.34 42.47 20.34L44.14 20.34C45.13 20.34 45.93 21.14 45.93 22.12L45.93 25.43L45.93 30.67L45.93 33.97C45.93 34.96 45.13 35.76 44.14 35.76L42.47 35.76C41.48 35.76 40.68 34.96 40.68 33.97L40.68 30.67L40.68 25.58ZM152.58 51.01L149.27 51.01C148.29 51.01 147.49 50.22 147.49 49.23L147.49 47.55C147.49 46.57 148.29 45.77 149.27 45.77L156.03 45.77C157.02 45.77 157.82 46.57 157.82 47.55L157.82 50.86L161.12 50.86C162.11 50.86 162.9 51.65 162.9 52.64L162.9 55.94L166.21 55.94C167.19 55.94 167.99 56.74 167.99 57.73L167.99 61.19L152.73 61.19L152.73 71.2L156.61 71.2C157.12 71.06 157.52 70.66 157.66 70.15L157.66 67.9C157.66 66.91 158.46 66.11 159.44 66.11L166.21 66.11C167.19 66.11 167.99 66.91 167.99 67.9L167.99 71.36L162.9 71.36L162.9 74.66C162.9 75.65 162.11 76.45 161.12 76.45L157.82 76.45L157.82 79.75C157.82 80.73 157.02 81.53 156.03 81.53L147.65 81.53L147.65 84.83C147.65 85.82 146.85 86.62 145.86 86.62L142.56 86.62L142.56 91.55L145.86 91.55C146.85 91.55 147.65 92.34 147.65 93.33L147.65 96.63L151.53 96.63C152.03 96.49 152.44 96.09 152.58 95.58L152.58 91.7L149.27 91.7C148.29 91.7 147.49 90.91 147.49 89.92L147.49 88.24C147.49 87.26 148.29 86.46 149.27 86.46L161.7 86.46C162.21 86.32 162.61 85.92 162.75 85.41L162.75 83.16C162.75 82.17 163.55 81.37 164.53 81.37L166.21 81.37C167.19 81.37 167.99 82.17 167.99 83.16L167.99 89.92C167.99 90.91 167.19 91.7 166.21 91.7L162.9 91.7L162.9 101.72L166.21 101.72C167.19 101.72 167.99 102.52 167.99 103.5L167.99 110.27C167.99 111.25 167.19 112.05 166.21 112.05L164.53 112.05C163.55 112.05 162.75 111.25 162.75 110.27L162.75 106.96L159.44 106.96C158.46 106.96 157.66 106.16 157.66 105.18L157.66 101.88L152.73 101.88L152.73 105.18C152.73 106.16 151.93 106.96 150.95 106.96L142.56 106.96L142.56 116.98L146.45 116.98C146.95 116.84 147.35 116.44 147.49 115.93L147.49 113.67C147.49 112.69 148.29 111.89 149.27 111.89L161.12 111.89C162.11 111.89 162.9 112.69 162.9 113.67L162.9 117.13L157.82 117.13L157.82 120.44C157.82 121.42 157.02 122.22 156.03 122.22L152.73 122.22L152.73 125.52C152.73 126.51 151.93 127.31 150.95 127.31L147.65 127.31L147.65 137.32L151.53 137.32C152.03 137.18 152.44 136.78 152.58 136.27L152.58 128.93C152.58 127.95 153.37 127.15 154.36 127.15L156.03 127.15C157.02 127.15 157.82 127.95 157.82 128.93L157.82 140.78C157.82 141.77 157.02 142.57 156.03 142.57L152.73 142.57L152.73 147.49L156.03 147.49C157.02 147.49 157.82 148.29 157.82 149.28L157.82 161.13C157.82 162.11 157.02 162.91 156.03 162.91L144.19 162.91C143.2 162.91 142.4 162.11 142.4 161.13L142.4 159.45C142.4 158.46 143.2 157.67 144.19 157.67L152.58 157.67L152.58 152.74L144.19 152.74C143.2 152.74 142.4 151.94 142.4 150.95L142.4 147.65L132.39 147.65L132.39 152.58L140.78 152.58C141.76 152.58 142.56 153.38 142.56 154.36L142.56 157.82L137.47 157.82L137.47 161.13C137.47 162.11 136.68 162.91 135.69 162.91L134.01 162.91C133.03 162.91 132.23 162.11 132.23 161.13L132.23 157.82L113.67 157.82C112.69 157.82 111.89 157.03 111.89 156.04L111.89 154.36C111.89 153.38 112.69 152.58 113.67 152.58L115.92 152.58C116.43 152.44 116.83 152.04 116.97 151.53L116.97 149.28C116.97 148.29 117.77 147.49 118.76 147.49L120.43 147.49C121.42 147.49 122.22 148.29 122.22 149.28L122.22 152.58L126.1 152.58C126.6 152.44 127.01 152.04 127.15 151.53L127.15 147.65L123.84 147.65C122.86 147.65 122.06 146.85 122.06 145.87L122.06 142.57L117.13 142.57L117.13 145.87C117.13 146.85 116.33 147.65 115.35 147.65L113.67 147.65C112.69 147.65 111.89 146.85 111.89 145.87L111.89 142.57L108.58 142.57C107.6 142.57 106.8 141.77 106.8 140.78L106.8 139.11C106.8 138.12 107.6 137.32 108.58 137.32L115.92 137.32C116.43 137.18 116.83 136.78 116.97 136.27L116.97 127.31L113.67 127.31C112.69 127.31 111.89 126.51 111.89 125.52L111.89 123.85C111.89 122.86 112.69 122.06 113.67 122.06L115.92 122.06C115.8 122.1 115.67 122.12 115.53 122.12L115.53 122.22L116.97 122.22L116.97 127.15L142.4 137.32L142.4 132.39L142.4 127.31L137.47 127.31L137.47 122.22L142.4 122.22L142.4 127.31L142.56 127.31L147.49 127.31L142.56 122.22L147.49 122.22L147.65 116.98L147.49 122.06L142.56 122.06L142.56 117.13L137.47 116.98L137.47 115.54L137.37 115.54C137.37 115.67 137.35 115.81 137.32 115.93L137.32 116.98L136.27 116.98C136.15 117.01 136.01 117.03 135.88 117.03L135.88 117.14L137.32 117.14L137.32 122.06L132.39 122.06L132.39 116.98L127.3 116.98L127.3 111.89L130.61 111.89C131.59 111.89 132.39 112.69 132.39 113.67L132.39 116.98L136.27 116.98C136.78 116.84 137.18 116.44 137.32 115.93L137.32 112.05L134.01 112.05C133.03 112.05 132.23 111.25 132.23 110.27L132.23 108.59C132.23 107.6 133.03 106.81 134.01 106.81L136.27 106.81C136.78 106.67 137.18 106.27 137.32 105.76L137.32 101.88L137.32 96.79L132.39 96.79L132.39 105.18C132.39 106.16 131.59 106.96 130.61 106.96L128.93 106.96C127.94 106.96 127.15 106.16 127.15 105.18L127.15 96.79L127.15 91.7L122.22 91.7L118.76 91.7C117.77 91.7 116.97 90.91 116.97 89.92L116.97 88.24C116.97 87.26 117.77 86.46 118.76 86.46L121.01 86.46C121.52 86.32 121.92 85.92 122.06 85.41L122.06 83.16C122.06 82.17 122.86 81.37 123.84 81.37L127.15 81.37L127.15 76.45L123.84 76.45C122.86 76.45 122.06 75.65 122.06 74.66L122.06 72.98C122.06 72 122.86 71.2 123.84 71.2L131.18 71.2C131.69 71.06 132.09 70.66 132.23 70.15L132.23 67.9C132.23 66.91 133.03 66.11 134.01 66.11L135.69 66.11C136.68 66.11 137.47 66.91 137.47 67.9L137.47 79.75C137.47 80.73 136.68 81.53 135.69 81.53L132.39 81.53L132.39 86.46L136.27 86.46C136.78 86.32 137.18 85.92 137.32 85.41L137.32 83.16C137.32 82.17 138.12 81.37 139.1 81.37L141.35 81.37C141.86 81.24 142.26 80.84 142.4 80.33L142.4 72.98C142.4 72 143.2 71.2 144.19 71.2L147.49 71.2L147.49 66.27L144.19 66.27C143.2 66.27 142.4 65.47 142.4 64.49L142.4 61.19L142.4 56.1L142.4 52.64C142.4 51.65 143.2 50.86 144.19 50.86L145.86 50.86C146.85 50.86 147.65 51.65 147.65 52.64L147.65 55.94L151.53 55.94C152.03 55.81 152.44 55.41 152.58 54.9L152.58 51.01ZM137.47 112.05L137.32 112.05L137.32 111.89L137.47 112.05ZM127.3 117.13L127.15 117.13L127.15 111.89L123.84 111.89C122.86 111.89 122.06 112.69 122.06 113.67L122.06 115.35C122.06 116.34 122.86 117.13 123.84 117.13L127.15 117.13L127.15 121.02C127.01 121.53 126.6 121.93 126.1 122.06L122.22 122.06L122.22 118.76C122.22 117.77 121.42 116.98 120.43 116.98L118.76 116.98C117.77 116.98 116.97 117.77 116.97 118.76L116.97 121.02C116.83 121.53 116.43 121.93 115.92 122.06L116.97 122.06L116.97 121.02C117.01 120.89 117.03 120.76 117.03 120.62L117.13 120.62L117.13 122.06L122.22 122.06L122.22 127.15L127.15 127.15L127.15 122.22L125.7 122.22L125.7 122.12C125.84 122.12 125.97 122.1 126.1 122.06L127.15 122.06L127.15 121.02C127.18 120.89 127.2 120.76 127.2 120.62L127.3 120.62L127.3 122.06L132.23 122.06L132.23 117.13L127.3 117.13ZM122.06 132.24L122.06 127.31L122.06 132.24ZM147.49 137.48L142.4 137.48L142.4 141.36C142.26 141.87 141.86 142.27 141.35 142.41L137.47 142.41L137.32 142.41L132.39 142.41L132.39 147.49L142.4 147.49L142.4 142.57L142.4 142.56L140.96 142.56L140.96 142.46C141.1 142.46 141.23 142.44 141.35 142.41L142.4 142.41L142.4 141.36C142.44 141.23 142.46 141.1 142.46 140.97L142.56 140.97L142.56 142.41L147.49 142.41L147.49 137.48Z" fill="#000000" fill-opacity="1.000000" fill-rule="evenodd"/>
</svg>
