<svg width="24.000000" height="24.000000" viewBox="0 0 24 24" fill="none" xmlns="http://www.w3.org/2000/svg" xmlns:xlink="http://www.w3.org/1999/xlink">
	<desc>
			Created with Pixso.
	</desc>
	<defs/>
	<rect id="Iconly/Bold/3 User" rx="-0.500000" width="23.000000" height="23.000000" transform="translate(0.500000 0.500000)" fill="#FFFFFF" fill-opacity="0"/>
	<path id="3 Friends" d="M16.1583 8.23285C16.1583 10.5825 14.2851 12.4666 11.949 12.4666C9.61293 12.4666 7.73975 10.5825 7.73975 8.23285C7.73975 5.88226 9.61293 4 11.949 4C14.2851 4 16.1583 5.88226 16.1583 8.23285ZM6.4371 11.8413C6.60187 11.8368 6.76303 11.8224 6.92062 11.7945C7.03435 11.7747 7.09164 11.6459 7.02718 11.5504C6.40039 10.6228 6.04314 9.50693 6.04314 8.30914C6.04314 7.05908 6.43353 5.89371 7.11134 4.93817C7.13284 4.90845 7.14806 4.86252 7.12747 4.82828C7.10956 4.80127 7.07553 4.78595 7.04509 4.77875C6.81586 4.73193 6.58127 4.70581 6.33592 4.70581C4.07951 4.70581 2.30751 6.84116 2.91191 9.21964C3.31932 10.8209 4.79405 11.8846 6.4371 11.8413ZM17.9571 8.30923C17.9571 9.50702 17.5998 10.6229 16.973 11.5505C16.9086 11.646 16.9659 11.7747 17.0796 11.7946C17.2363 11.8216 17.3984 11.8369 17.5631 11.8414C19.2062 11.8846 20.6809 10.821 21.0883 9.21973C21.6918 6.84125 19.9198 4.7059 17.6634 4.7059C17.4181 4.7059 17.1835 4.73203 16.9551 4.77884C16.9238 4.78604 16.8907 4.80045 16.8728 4.82837C16.8513 4.86261 16.8674 4.90854 16.8889 4.93826C17.5667 5.8938 17.9571 7.05917 17.9571 8.30923ZM20.6782 13.5126C21.7823 13.7296 22.5084 14.1727 22.8093 14.8167C23.0636 15.3453 23.0636 15.9586 22.8093 16.4864C22.349 17.4851 20.8654 17.8058 20.2887 17.8886C20.1696 17.9066 20.0738 17.8031 20.0864 17.6833C20.381 14.9157 18.0377 13.6035 17.4315 13.3018C17.4055 13.2883 17.4001 13.2676 17.4028 13.255C17.4046 13.246 17.4154 13.2316 17.4351 13.2289C18.7468 13.2046 20.1571 13.3847 20.6782 13.5126ZM6.59694 13.2545C6.59962 13.268 6.59425 13.2878 6.56918 13.3022C5.9621 13.6039 3.61884 14.9161 3.91342 17.6827C3.92595 17.8034 3.83104 17.9061 3.71194 17.889C3.13531 17.8061 1.65163 17.4855 1.19139 16.4867C0.936203 15.9581 0.936203 15.3457 1.19139 14.817C1.49225 14.1731 2.21753 13.73 3.32155 13.512C3.84358 13.385 5.25294 13.2049 6.5656 13.2292C6.5853 13.2319 6.59515 13.2463 6.59694 13.2545ZM11.949 20C8.51785 20 5.58809 19.456 5.58809 17.2802C5.58809 15.1034 8.49904 14.5396 11.949 14.5396C15.3802 14.5396 18.31 15.0836 18.31 17.2603C18.31 19.4362 15.399 20 11.949 20Z" clip-rule="evenodd" fill="#252525" fill-opacity="1.000000" fill-rule="evenodd"/>
</svg>
