<svg width="24.000000" height="24.000000" viewBox="0 0 24 24" fill="none" xmlns="http://www.w3.org/2000/svg" xmlns:xlink="http://www.w3.org/1999/xlink">
	<desc>
			Created with Pixso.
	</desc>
	<defs/>
	<rect id="Iconly/Bold/Add User" rx="-0.500000" width="23.000000" height="23.000000" transform="translate(0.500000 0.500000)" fill="#FFFFFF" fill-opacity="0"/>
	<path id="Add User" d="M9.5 12.5537C12.2545 12.5537 14.4626 10.3171 14.4626 7.52684C14.4626 4.73663 12.2545 2.5 9.5 2.5C6.74548 2.5 4.53735 4.73663 4.53735 7.52684C4.53735 10.3171 6.74548 12.5537 9.5 12.5537ZM21.1011 9.58786L19.8979 9.58786L19.8979 8.41161C19.8979 7.90945 19.4952 7.5 18.999 7.5C18.5038 7.5 18.1 7.90945 18.1 8.41161L18.1 9.58786L16.8989 9.58786C16.4027 9.58786 16 9.99731 16 10.4995C16 11.0016 16.4027 11.4111 16.8989 11.4111L18.1 11.4111L18.1 12.5884C18.1 13.0906 18.5038 13.5 18.999 13.5C19.4952 13.5 19.8979 13.0906 19.8979 12.5884L19.8979 11.4111L21.1011 11.4111C21.5962 11.4111 22 11.0016 22 10.4995C22 9.99731 21.5962 9.58786 21.1011 9.58786ZM9.5 15.0152C5.45422 15.0152 2 15.662 2 18.2464C2 20.8298 5.43323 21.5 9.5 21.5C13.5448 21.5 17 20.8531 17 18.2687C17 15.6844 13.5668 15.0152 9.5 15.0152Z" clip-rule="evenodd" fill="#979797" fill-opacity="1.000000" fill-rule="evenodd"/>
</svg>
