<svg width="42.000000" height="30.000000" viewBox="0 0 42 30" fill="none" xmlns="http://www.w3.org/2000/svg" xmlns:xlink="http://www.w3.org/1999/xlink">
	<desc>
			Created with Pixso.
	</desc>
	<defs/>
	<path id="Track" d="M14.69 4.96C15.92 4.89 17.14 4.9 18.37 4.9C18.38 4.9 24.6 4.9 24.6 4.9C25.85 4.9 27.07 4.89 28.3 4.96C29.42 5.02 30.5 5.16 31.59 5.46C33.86 6.1 35.85 7.44 37.29 9.34C38.72 11.22 39.5 13.53 39.5 15.89C39.5 18.26 38.72 20.57 37.29 22.45C35.85 24.35 33.86 25.68 31.59 26.33C30.5 26.63 29.42 26.77 28.3 26.83C27.07 26.9 25.85 26.89 24.62 26.89C24.61 26.89 18.39 26.89 18.39 26.89C17.14 26.89 15.92 26.9 14.69 26.83C13.57 26.77 12.49 26.63 11.4 26.33C9.13 25.68 7.14 24.35 5.7 22.45C4.27 20.57 3.5 18.26 3.5 15.89C3.5 13.53 4.27 11.22 5.7 9.34C7.14 7.44 9.13 6.1 11.4 5.46C12.49 5.16 13.57 5.02 14.69 4.96Z" fill="#2B56F6" fill-opacity="1.000000" fill-rule="nonzero"/>
	<path id="Knob" d="M28.55 24.77C33.43 24.77 37.38 20.79 37.38 15.9C37.38 11 33.43 7.02 28.55 7.02C23.68 7.02 19.73 11 19.73 15.9C19.73 20.79 23.68 24.77 28.55 24.77Z" fill="#FFFFFF" fill-opacity="1.000000" fill-rule="evenodd"/>
</svg>
