<svg width="24.000000" height="24.000000" viewBox="0 0 24 24" fill="none" xmlns="http://www.w3.org/2000/svg" xmlns:xlink="http://www.w3.org/1999/xlink">
	<desc>
			Created with Pixso.
	</desc>
	<defs/>
	<rect id="Iconly/Light/Document" rx="-0.500000" width="23.000000" height="23.000000" transform="translate(0.500000 0.500000)" fill="#FFFFFF" fill-opacity="0"/>
	<path id="Stroke 1" d="M15.71 16.22L8.49 16.22" stroke="#979797" stroke-opacity="1.000000" stroke-width="1.500000" stroke-linejoin="round" stroke-linecap="round"/>
	<path id="Stroke 2" d="M15.71 12.03L8.49 12.03" stroke="#979797" stroke-opacity="1.000000" stroke-width="1.500000" stroke-linejoin="round" stroke-linecap="round"/>
	<path id="Stroke 3" d="M11.25 7.86L8.49 7.86" stroke="#979797" stroke-opacity="1.000000" stroke-width="1.500000" stroke-linejoin="round" stroke-linecap="round"/>
	<path id="Stroke 4" d="M8.21 2.75C5.45 2.77 3.75 4.58 3.75 7.35L3.75 16.55C3.75 19.33 5.47 21.15 8.25 21.15C8.25 21.15 15.93 21.15 15.94 21.15C18.7 21.13 20.41 19.32 20.41 16.55L20.41 7.35C20.41 4.57 18.69 2.74 15.9 2.74C15.9 2.74 8.23 2.75 8.21 2.75Z" stroke="#979797" stroke-opacity="1.000000" stroke-width="1.500000" stroke-linejoin="round"/>
</svg>
