<svg width="44.002197" height="44.001099" viewBox="0 0 44.0022 44.0011" fill="none" xmlns="http://www.w3.org/2000/svg" xmlns:xlink="http://www.w3.org/1999/xlink">
	<desc>
			Created with Pixso.
	</desc>
	<defs/>
	<circle id="Ellipse 63" cx="22.002197" cy="22.000000" r="15.000000" fill="#C7E8FD" fill-opacity="1.000000"/>
	<circle id="Ellipse 66" cx="22.002197" cy="22.000000" r="11.000000" fill="#C7E8FD" fill-opacity="1.000000"/>
	<circle id="Ellipse 66" cx="22.002197" cy="22.000000" r="10.500000" stroke="#FFFFFF" stroke-opacity="1.000000" stroke-width="1.000000"/>
	<path id="Ellipse 64" d="M19.01 0.2C14.99 0.75 11.31 2.38 8.28 4.8C4.23 8.03 1.62 12.41 0.55 17.1C-0.6 22.15 0.09 27.2 2.18 31.54C4.43 36.21 8.11 39.73 12.45 41.81C17.12 44.07 22.2 44.51 26.89 43.44C31.95 42.29 36.2 39.48 39.19 35.71C41.76 32.5 43.28 28.79 43.79 24.99C44.02 23.34 42.65 22 41 22L25 22C23.34 22 22 20.65 22 19L22 3C22 1.34 20.65 -0.03 19.01 0.2Z" fill="#6BB1F7" fill-opacity="1.000000" fill-rule="evenodd"/>
	<path id="Ellipse 65" d="M19.02 7.29C16.64 7.77 14.47 8.81 12.65 10.27C9.88 12.47 8.1 15.46 7.38 18.66C6.59 22.1 7.06 25.55 8.49 28.5C10.02 31.69 12.53 34.08 15.49 35.51C18.67 37.04 22.13 37.35 25.34 36.62C28.78 35.83 31.68 33.91 33.72 31.34C35.26 29.42 36.24 27.24 36.7 24.98C37.03 23.35 35.65 22 34 22L25 22C23.34 22 22 20.65 22 19L22 10C22 8.34 20.64 6.96 19.02 7.29Z" fill="#2B56F6" fill-opacity="1.000000" fill-rule="evenodd"/>
</svg>
